<?xml version="1.0" encoding="utf-8"?>
<!-- Generator: Adobe Illustrator 26.0.0, SVG Export Plug-In . SVG Version: 6.00 Build 0)  -->
<svg version="1.1" id="Capa_1" xmlns="http://www.w3.org/2000/svg" xmlns:xlink="http://www.w3.org/1999/xlink" x="0px" y="0px"
	 viewBox="0 0 24 24" style="enable-background:new 0 0 24 24;" xml:space="preserve">
<style type="text/css">
	.st0{fill:#5620A0;}
</style>
<g>
	<path class="st0" d="M12,0C5.4,0,0,5.4,0,12s5.4,12,12,12s12-5.4,12-12S18.6,0,12,0z M12,19.7c-0.9,0-1.6-0.7-1.6-1.7
		c0-1,0.7-1.7,1.6-1.7c1,0,1.6,0.7,1.6,1.7C13.6,18.9,13,19.7,12,19.7z M12.6,13.3c-0.2,0.8-1,0.8-1.2,0c-0.3-1-1.3-4.6-1.3-6.9
		c0-3.1,3.9-3.1,3.9,0C14,8.8,12.9,12.5,12.6,13.3z"/>
</g>
</svg>
